<svg id="Capa_1" enable-background="new 0 0 512 512" height="512" viewBox="0 0 512 512" width="512" xmlns="http://www.w3.org/2000/svg"><path d="m464.9 421.276c30.094-33.395 46.766-76.221 47.096-121.369.359-49.19-18.586-95.564-53.346-130.581-28.532-28.742-64.797-46.871-104.078-52.444-9.193-23.629-23.32-45.283-41.848-63.661-34.598-34.317-80.489-53.217-129.223-53.217-.003 0 .002 0-.001 0-49.172 0-95.398 19.282-130.149 54.288-34.76 35.016-53.705 81.391-53.346 130.58.33 45.148 17.002 87.975 47.096 121.37l-6.173 63.28c-.907 9.292 3.383 18.239 11.196 23.35 4.159 2.72 8.913 4.091 13.681 4.09 4.188 0 8.389-1.058 12.2-3.188l58.702-32.805c6.865 1.807 13.821 3.204 20.842 4.202 8.662 22.106 21.663 42.544 38.586 60.213 33.398 34.872 78.196 54.956 126.14 56.553 17.976.597 35.785-1.396 53.019-5.932l58.702 32.805c3.813 2.13 8.011 3.189 12.2 3.188 4.767 0 9.522-1.37 13.681-4.09 7.813-5.111 12.104-14.058 11.196-23.349zm-30.517-3.837 5.903 60.518-55.773-31.168c-2.258-1.262-4.779-1.906-7.318-1.906-1.452 0-2.911.211-4.328.638-16.021 4.83-32.707 6.997-49.594 6.431-40.066-1.334-77.523-18.14-105.472-47.32-27.942-29.176-43.141-67.334-42.795-107.448.352-40.715 16.474-78.939 45.397-107.629 28.94-28.707 67.33-44.516 108.096-44.517 41.121 0 79.781 16.131 108.859 45.423 29.086 29.3 44.938 68.09 44.637 109.226-.29 39.739-15.717 77.327-43.438 105.838-3.075 3.164-4.603 7.522-4.174 11.914zm-306.896-85.685-55.773 31.168 5.903-60.518c.429-4.392-1.099-8.75-4.174-11.913-27.722-28.511-43.148-66.099-43.438-105.838-.302-41.136 15.551-79.926 44.637-109.226 29.078-29.292 67.738-45.423 108.859-45.423 40.766 0 79.155 15.81 108.096 44.517 12.148 12.05 22.029 25.787 29.44 40.679-45.94 1.829-88.935 20.497-121.761 53.057-34.576 34.297-53.849 79.992-54.269 128.669-.105 12.2.996 24.246 3.237 36.003-3.058-.719-6.097-1.533-9.111-2.442-3.895-1.174-8.096-.716-11.646 1.267z"/><path d="m255 251.039h57c8.284 0 15-6.716 15-15s-6.716-15-15-15h-57c-8.284 0-15 6.716-15 15s6.716 15 15 15z"/><path d="m402 281.039h-147c-8.284 0-15 6.716-15 15s6.716 15 15 15h147c8.284 0 15-6.716 15-15s-6.716-15-15-15z"/><path d="m402 341.039h-147c-8.284 0-15 6.716-15 15s6.716 15 15 15h147c8.284 0 15-6.716 15-15s-6.716-15-15-15z"/></svg>